<svg width="68" height="67" viewBox="0 0 68 67" fill="none" xmlns="http://www.w3.org/2000/svg">
<path d="M60.7143 0.75H7.28571C5.35342 0.75 3.50027 1.49705 2.13394 2.8268C0.7676 4.15655 0 5.96008 0 7.84063L0 59.8386C0 61.7191 0.7676 63.5227 2.13394 64.8524C3.50027 66.1822 5.35342 66.9292 7.28571 66.9292H28.1183V44.4297H18.5558V33.8396H28.1183V25.7681C28.1183 16.5872 33.7344 11.5159 42.3361 11.5159C46.4555 11.5159 50.7632 12.2309 50.7632 12.2309V21.2419H46.0169C41.3404 21.2419 39.8817 24.0663 39.8817 26.9632V33.8396H50.3215L48.6519 44.4297H39.8817V66.9292H60.7143C62.6466 66.9292 64.4997 66.1822 65.8661 64.8524C67.2324 63.5227 68 61.7191 68 59.8386V7.84063C68 5.96008 67.2324 4.15655 65.8661 2.8268C64.4997 1.49705 62.6466 0.75 60.7143 0.75Z" fill="white"/>
</svg>
