<svg width="69" height="67" viewBox="0 0 69 67" fill="none" xmlns="http://www.w3.org/2000/svg">
<path d="M34.0266 16.702C24.373 16.702 16.5864 24.1829 16.5864 33.4575C16.5864 42.7321 24.373 50.2131 34.0266 50.2131C43.6801 50.2131 51.4668 42.7321 51.4668 33.4575C51.4668 24.1829 43.6801 16.702 34.0266 16.702ZM34.0266 44.3508C27.7882 44.3508 22.6882 39.4656 22.6882 33.4575C22.6882 27.4494 27.773 22.5642 34.0266 22.5642C40.2801 22.5642 45.365 27.4494 45.365 33.4575C45.365 39.4656 40.265 44.3508 34.0266 44.3508ZM56.248 16.0166C56.248 18.1894 54.4266 19.9247 52.1801 19.9247C49.9185 19.9247 48.1123 18.1748 48.1123 16.0166C48.1123 13.8583 49.9337 12.1084 52.1801 12.1084C54.4266 12.1084 56.248 13.8583 56.248 16.0166ZM67.7989 19.9831C67.5409 14.7479 66.2962 10.1106 62.3043 6.28988C58.3275 2.4692 53.5007 1.27342 48.0516 1.01093C42.4355 0.704691 25.6025 0.704691 19.9864 1.01093C14.5525 1.25883 9.72567 2.45462 5.73371 6.2753C1.74174 10.096 0.512277 14.7333 0.239063 19.9685C-0.0796875 25.3641 -0.0796875 41.5364 0.239063 46.932C0.497098 52.1672 1.74174 56.8045 5.73371 60.6252C9.72567 64.4458 14.5373 65.6416 19.9864 65.9041C25.6025 66.2104 42.4355 66.2104 48.0516 65.9041C53.5007 65.6562 58.3275 64.4604 62.3043 60.6252C66.281 56.8045 67.5257 52.1672 67.7989 46.932C68.1177 41.5364 68.1177 25.3787 67.7989 19.9831ZM60.5435 52.7213C59.3596 55.5795 57.0676 57.7815 54.0775 58.9336C49.5998 60.6397 38.9748 60.246 34.0266 60.246C29.0784 60.246 18.4382 60.6252 13.9757 58.9336C11.0007 57.7961 8.70871 55.5941 7.5096 52.7213C5.73371 48.4194 6.14353 38.2115 6.14353 33.4575C6.14353 28.7035 5.74889 18.481 7.5096 14.1937C8.69353 11.3355 10.9855 9.13351 13.9757 7.98148C18.4534 6.2753 29.0784 6.66903 34.0266 6.66903C38.9748 6.66903 49.615 6.28988 54.0775 7.98148C57.0525 9.11893 59.3444 11.3209 60.5435 14.1937C62.3194 18.4956 61.9096 28.7035 61.9096 33.4575C61.9096 38.2115 62.3194 48.434 60.5435 52.7213Z" fill="white"/>
</svg>
