<svg width="64" height="66" viewBox="0 0 64 66" fill="none" xmlns="http://www.w3.org/2000/svg">
<path d="M57.1429 0.75H6.85714C3.07143 0.75 0 3.84458 0 7.65883V58.3236C0 62.1378 3.07143 65.2324 6.85714 65.2324H57.1429C60.9286 65.2324 64 62.1378 64 58.3236V7.65883C64 3.84458 60.9286 0.75 57.1429 0.75ZM50.1571 23.6067C50.1857 24.0097 50.1857 24.4271 50.1857 24.8302C50.1857 37.3092 40.7571 51.6882 23.5286 51.6882C18.2143 51.6882 13.2857 50.1337 9.14286 47.4566C9.9 47.5429 10.6286 47.5717 11.4 47.5717C15.7857 47.5717 19.8143 46.0748 23.0286 43.5416C18.9143 43.4552 15.4571 40.7349 14.2714 36.9926C15.7143 37.2085 17.0143 37.2085 18.5 36.8199C14.2143 35.9419 11 32.142 11 27.5505V27.4354C12.2429 28.1406 13.7 28.5724 15.2286 28.63C13.9435 27.7688 12.89 26.6004 12.1621 25.2291C11.4342 23.8578 11.0546 22.3263 11.0571 20.7712C11.0571 19.0152 11.5143 17.4032 12.3286 16.007C16.9429 21.7356 23.8714 25.4779 31.6429 25.8809C30.3143 19.4758 35.0714 14.2798 40.7857 14.2798C43.4857 14.2798 45.9143 15.4169 47.6286 17.2592C49.7429 16.8562 51.7714 16.0646 53.5714 14.9851C52.8714 17.1729 51.4 19.0152 49.4571 20.1811C51.3429 19.9796 53.1714 19.447 54.8571 18.713C53.5857 20.5985 51.9857 22.2681 50.1571 23.6067Z" fill="white"/>
</svg>
